# xmcd
# 
# Track frame offsets:
#     225
#     34758
#     58359
#     77598
#     102737
#     127781
#     144417
#     160088
#     179613
#     198941
#     224499
#     243736
# 
# Disc length: 3574
# 
# Revision: 0
# Processed by: cddbd v1.5.2PL0 Copyright (c) Steve Scherf et al.
# Submitted via: fre:ac v1.0.17
# 
DISCID=b10df30c
DTITLE=YES - Sweet Dreams
DYEAR=0
DGENRE=Progressive Rock
TTITLE0=Something's Coming
TTITLE1=Each And Everyday
TTITLE2=Sweetness
TTITLE3=Dear Father
TTITLE4=Every Litle Thing
TTITLE5=Looking Around
TTITLE6=Sweet Dreams
TTITLE7=Then
TTITLE8=No Opportunity Necessary, No Experience Needed
TTITLE9=Astral Traveller
TTITLE10=For Everyone
TTITLE11=Beyond And Before
EXTD=
EXTT0=
EXTT1=
EXTT2=
EXTT3=
EXTT4=
EXTT5=
EXTT6=
EXTT7=
EXTT8=
EXTT9=
EXTT10=
EXTT11=
PLAYORDER=
